HIERARCHY
ROOT root
{
	OFFSET	0	13.1	24.9
	CHANNELS 6  Xposition Yposition Zposition Xrotation Yrotation Zrotation
	JOINT spine_1
	{
		OFFSET	0	9.99999	0
		CHANNELS 3  Xrotation Yrotation Zrotation
		JOINT spine_2
		{
			OFFSET	0	112	-10
			CHANNELS 3  Xrotation Yrotation Zrotation
			JOINT spine_3
			{
				OFFSET	0	206.5	19.3
				CHANNELS 3  Xrotation Yrotation Zrotation
				JOINT spine_4
				{
					OFFSET	0	110.4	14.6
					CHANNELS 3  Xrotation Yrotation Zrotation
					JOINT neck_1
					{
						OFFSET	0	71.8	-50.3
						CHANNELS 3  Xrotation Yrotation Zrotation
						JOINT neck_2
						{
							OFFSET	0	86.2	-25.8
							CHANNELS 3  Xrotation Yrotation Zrotation
							JOINT head_ee
							{
								OFFSET	0	179.8	-8.7
								CHANNELS 3  Xrotation Yrotation Zrotation
								End Site
								{
									OFFSET	1	0	0
								}
							}
						}
					}
					JOINT left_clavicle
					{
						OFFSET	-43.2	22.4	-70.8
						CHANNELS 3  Xrotation Yrotation Zrotation
						JOINT left_shoulder
						{
							OFFSET	-93.9	-5.79999	48.7
							CHANNELS 3  Xrotation Yrotation Zrotation
							JOINT left_elbow
							{
								OFFSET	-291.4	-30.8	15.2
								CHANNELS 3  Xrotation Yrotation Zrotation
								JOINT left_lowarm_twist
								{
									OFFSET	-110.7	-3.89999	13.6
									CHANNELS 3  Xrotation Yrotation Zrotation
									JOINT left_hand
									{
										OFFSET	-110.7	-3.89999	13.6
										CHANNELS 3  Xrotation Yrotation Zrotation
										JOINT left_ee
										{
											OFFSET	-80.8	-5.10001	12.1
											CHANNELS 3  Xrotation Yrotation Zrotation
											End Site
											{
												OFFSET	1	0	0
											}
										}
									}
								}
							}
						}
					}
					JOINT right_clavicle
					{
						OFFSET	43.2	22.4	-70.8
						CHANNELS 3  Xrotation Yrotation Zrotation
						JOINT right_shoulder
						{
							OFFSET	93.9	-5.79999	48.7
							CHANNELS 3  Xrotation Yrotation Zrotation
							JOINT right_elbow
							{
								OFFSET	291.4	-30.8	15.2
								CHANNELS 3  Xrotation Yrotation Zrotation
								JOINT right_lowarm_twist
								{
									OFFSET	110.7	-3.89999	13.6
									CHANNELS 3  Xrotation Yrotation Zrotation
									JOINT right_hand
									{
										OFFSET	110.7	-3.89999	13.6
										CHANNELS 3  Xrotation Yrotation Zrotation
										JOINT right_ee
										{
											OFFSET	80.8	-5.10001	12.1
											CHANNELS 3  Xrotation Yrotation Zrotation
											End Site
											{
												OFFSET	1	0	0
											}
										}
									}
								}
							}
						}
					}
				}
			}
		}
	}
	JOINT left_hip
	{
		OFFSET	-82.8	-127.5	0.300001
		CHANNELS 3  Xrotation Yrotation Zrotation
		JOINT left_knee
		{
			OFFSET	-28.2	-396.7	2.2
			CHANNELS 3  Xrotation Yrotation Zrotation
			JOINT left_ankle
			{
				OFFSET	-11.7	-411.3	35.4
				CHANNELS 3  Xrotation Yrotation Zrotation
				JOINT left_toes
				{
					OFFSET	0	-60	-88.6
					CHANNELS 3  Xrotation Yrotation Zrotation
					JOINT left_foot_ee
					{
						OFFSET	-22.5	-16.5	-42.2
						CHANNELS 3  Xrotation Yrotation Zrotation
						End Site
						{
							OFFSET	1	0	0
						}
					}
				}
			}
		}
	}
	JOINT right_hip
	{
		OFFSET	82.8	-127.5	0.300001
		CHANNELS 3  Xrotation Yrotation Zrotation
		JOINT right_knee
		{
			OFFSET	28.2	-396.7	2.2
			CHANNELS 3  Xrotation Yrotation Zrotation
			JOINT right_ankle
			{
				OFFSET	11.7	-411.3	35.4
				CHANNELS 3  Xrotation Yrotation Zrotation
				JOINT right_toes
				{
					OFFSET	0	-60	-88.6
					CHANNELS 3  Xrotation Yrotation Zrotation
					JOINT right_foot_ee
					{
						OFFSET	22.5	-16.5	-42.2
						CHANNELS 3  Xrotation Yrotation Zrotation
						End Site
						{
							OFFSET	1	0	0
						}
					}
				}
			}
		}
	}
}
MOTION
Frames: 14
Frame Time: 0.02
481.414573769 728.193 -1245.64483355 174.536124732 -50.0579951146 179.832391001 -1.28429 -0.696437 -1.5465 -1.28316 -0.596631 -1.58767 -1.26509 -0.212663 -1.68267 -1.26872 -0.475704 -1.62799 -6.59843 -3.12702 0.963408 -6.59198 -6.49807 0.352919 -0.0 0.0 -0.0 10.8978 -11.0704 21.8008 -35.0669 -56.5934 47.2978 0.309184 -8.70798 0.0235408 22.08 0.242565 -2.79268 0.257142 4.76403 3.68582 -0.0 0.0 -0.0 10.9989 22.8423 -21.4232 -43.7055 55.7388 -50.4555 0.29221 8.23668 -0.02104 -16.9247 0.893348 -1.96325 -0.102073 15.1053 7.12017 0.0 0.0 0.0 2.68549 3.25888 -4.40884 -21.6617 0.272194 3.29324 32.4552 -2.83494 -4.19273 -14.7963 0.0 0.0 -0.0 0.0 -0.0 14.8895 -11.5002 7.82829 -38.635 0.382217 -5.80625 30.1783 -13.8373 3.94262 10.5071 -0.0 -0.0 0.0 0.0 0.0 
485.561244957 727.259 -1247.33868281 174.031466334 -47.57218515 -179.498178627 -1.60575 -0.675462 -1.74502 -1.60423 -0.563071 -1.78445 -1.58465 -0.124007 -1.86704 -1.58927 -0.417265 -1.82405 -6.63581 -4.14514 1.5778 -6.6214 -8.83296 0.766833 -0.0 0.0 -0.0 11.0581 -11.8797 22.1465 -34.902 -56.0781 46.3152 0.355295 -9.98217 0.0310287 23.3962 0.222848 -2.95965 0.187984 4.43048 3.0934 -0.0 0.0 -0.0 11.5308 24.1008 -22.5123 -44.9763 55.1636 -49.9789 0.246226 6.95435 -0.0149614 -17.1082 0.906148 -1.98295 -0.23131 15.4619 8.14555 0.0 0.0 0.0 2.14288 3.46559 -4.82044 -22.6454 0.254845 3.4432 32.7757 -2.61976 -4.22298 -14.7208 0.0 0.0 -0.0 0.0 -0.0 16.3391 -11.8003 7.28435 -40.1064 0.473549 -6.01317 29.3825 -13.9197 3.8564 9.93618 -0.0 -0.0 0.0 0.0 0.0 
494.560721274 725.618 -1242.7801647 171.746642333 -48.0032189788 178.084479586 -2.12498 -0.630942 -1.66232 -2.12359 -0.523902 -1.69908 -2.10596 -0.0900136 -1.77572 -2.11017 -0.369283 -1.73924 -5.10179 -5.49804 2.39035 -5.0463 -11.9035 1.47785 -0.0 0.0 -0.0 11.2366 -12.8418 22.5276 -36.0002 -56.1361 43.951 0.41789 -11.6958 0.0428009 23.9844 0.212797 -3.03411 0.243158 1.82047 2.38129 -0.0 0.0 -0.0 11.4999 23.361 -22.5131 -45.5323 54.2628 -50.1413 0.208344 5.89264 -0.0107232 -18.0033 0.969492 -2.07845 -0.323403 15.6678 8.85636 0.0 0.0 0.0 0.482543 3.75705 -3.86829 -24.2675 0.220624 3.68975 33.4598 -3.34282 -4.30015 -14.369 0.0 0.0 -0.0 0.0 -0.0 18.3215 -8.83552 4.51406 -34.3853 0.148727 -5.19657 20.9473 -15.0444 2.87538 7.16472 -0.0 -0.0 0.0 0.0 0.0 
495.791927211 723.81 -1235.95651924 172.970298456 -50.0929181068 179.303267766 -1.86231 -0.483408 -1.68131 -1.86082 -0.375458 -1.70865 -1.84775 0.0484125 -1.74873 -1.85195 -0.228333 -1.73444 -3.61171 -6.89308 1.17765 -3.53509 -13.4815 0.164331 -0.0 0.0 -0.0 11.2286 -16.6552 22.3738 -35.6331 -56.3595 40.9434 0.477171 -13.2995 0.0556306 23.6411 0.218756 -2.99066 0.286094 2.43187 2.91942 -0.0 0.0 -0.0 11.0278 19.6739 -21.7405 -47.7688 54.5945 -49.0733 0.339469 9.54592 -0.0283447 -18.2045 0.983939 -2.09979 -0.284548 14.2569 7.99508 0.0 0.0 0.0 0.0336479 2.02009 -4.15873 -21.3114 0.277749 3.23978 35.5103 -1.27506 -4.47887 -14.4256 0.0 0.0 -0.0 0.0 -0.0 19.9705 -9.8065 2.81849 -29.5285 -0.0618356 -4.48127 13.0376 -13.7087 1.84305 4.5193 -0.0 -0.0 0.0 0.0 0.0 
501.704672171 725.657 -1224.66342479 172.688786449 -50.1028863225 -179.840372941 -1.93674 -0.593287 -1.86815 -1.93492 -0.473231 -1.9021 -1.9168 0.00258481 -1.96006 -1.92203 -0.306944 -1.93589 -3.27808 -6.98012 1.97695 -3.17362 -14.2382 1.0202 -0.0 0.0 -0.0 11.6345 -18.4129 23.2014 -37.9846 -55.2622 33.1459 0.579363 -16.0136 0.0814949 24.4516 0.204269 -3.09319 0.17201 -3.96961 -0.522615 -0.0 0.0 -0.0 11.8113 20.6231 -23.456 -45.8112 52.9953 -52.3428 0.226272 6.39567 -0.0126421 -19.0307 1.04404 -2.18686 -0.5389 15.178 10.1131 0.0 0.0 0.0 -1.70095 5.76597 -6.42668 -17.3897 0.317579 2.63948 34.9889 -4.52756 -4.46608 -13.6856 0.0 0.0 -0.0 0.0 -0.0 20.8076 -5.92979 -0.141954 -30.3618 -0.0300384 -4.60519 5.82155 -16.2142 0.847111 2.69638 -0.0 -0.0 0.0 0.0 0.0 
509.964050104 724.503 -1212.42087916 173.101297777 -51.0309858462 -178.925341751 -1.99179 -0.661953 -2.01778 -1.98968 -0.532243 -2.05579 -1.96771 -0.0155037 -2.12349 -1.97383 -0.3506 -2.09442 -1.89126 -7.12603 1.22886 -1.77479 -13.8378 0.376012 -0.0 0.0 -0.0 11.9731 -19.9296 23.8772 -40.1013 -55.0418 29.2515 0.686953 -18.7933 0.113684 22.9165 0.230478 -2.89885 -0.0937583 -8.41588 -4.20993 -0.0 0.0 -0.0 11.4117 16.5535 -22.7939 -46.6794 52.5755 -53.277 0.227964 6.44308 -0.0128312 -19.7129 1.09462 -2.25811 -0.442438 13.7355 8.84608 0.0 0.0 0.0 -4.33164 6.92768 -7.35791 -9.41785 0.271713 1.41818 34.8821 -5.76825 -4.47391 -13.5263 0.0 0.0 -0.0 0.0 -0.0 22.013 -3.95426 -1.55543 -26.147 -0.172257 -3.97412 -0.203128 -15.7007 -0.0299819 0.515726 -0.0 -0.0 0.0 0.0 0.0 
516.911935977 723.218 -1209.9555625 172.476606632 -51.1285378472 -179.165290323 -2.1597 -0.691356 -2.19282 -2.15719 -0.550456 -2.23234 -2.13225 0.0164351 -2.29911 -2.13946 -0.346778 -2.27288 -1.49447 -6.36953 1.25758 -1.39158 -12.4712 0.541837 -0.0 0.0 -0.0 12.0259 -20.5888 23.9505 -40.9588 -55.1313 27.1797 0.771608 -20.9184 0.142443 22.1197 0.242027 -2.79772 -0.217676 -10.6332 -5.99737 -0.0 0.0 -0.0 11.1601 16.3264 -22.2344 -46.7133 52.074 -54.185 0.229535 6.48711 -0.013008 -19.6276 1.08825 -2.24923 -0.429023 13.1706 8.51487 0.0 0.0 0.0 -5.72452 6.1367 -7.37192 -7.56258 0.236702 1.13565 35.8919 -6.92416 -4.59036 -13.0524 0.0 0.0 -0.0 0.0 -0.0 22.4282 -3.29019 -2.10928 -25.7574 -0.18305 -3.9153 -1.48448 -16.1783 -0.21997 -0.165461 0.0 0.0 0.0 0.0 0.0 
524.518336093 724.836 -1207.51695795 171.412191147 -51.8213137028 179.771712625 -2.25901 -0.60695 -2.24141 -2.25634 -0.463132 -2.27546 -2.23435 0.115902 -2.3192 -2.24177 -0.251727 -2.30841 -1.77291 -5.82411 1.63225 -1.67865 -11.8006 0.978771 -0.0 0.0 -0.0 12.1572 -20.9886 24.2215 -40.5138 -54.869 26.382 0.829632 -22.3413 0.163833 21.6359 0.248351 -2.73625 -0.341395 -11.8296 -7.34807 -0.0 0.0 -0.0 11.3601 15.5809 -22.7197 -48.1517 51.2992 -54.4612 0.223766 6.32541 -0.0123644 -19.884 1.10743 -2.27588 -0.405113 12.7715 8.18253 0.0 0.0 0.0 -7.29628 7.08948 -7.01757 -5.85771 0.196475 0.877126 34.9043 -5.70764 -4.47513 -12.8492 0.0 0.0 -0.0 0.0 -0.0 23.0886 -2.09066 -2.30633 -23.8872 -0.229274 -3.63204 -4.8916 -17.7263 -0.732626 -0.61813 0.0 0.0 0.0 0.0 0.0 
540.928628309 722.317 -1197.7150349 170.873826287 -51.8914658545 179.273942824 -2.41712 -0.543257 -2.2416 -2.41441 -0.399555 -2.2716 -2.39495 0.183032 -2.29919 -2.40228 -0.18228 -2.29925 -3.06213 -5.34092 1.00687 -3.00861 -10.4932 0.270422 -0.0 0.0 -0.0 11.9474 -21.7109 23.6816 -39.0856 -54.5947 21.5092 0.992829 -26.1883 0.230937 20.8892 0.257094 -2.64128 -0.389502 -14.2249 -8.69387 -0.0 0.0 -0.0 10.8891 12.6302 -21.7535 -49.383 49.9894 -54.9706 0.256213 7.23349 -0.0161948 -20.0396 1.11913 -2.29201 -0.38339 11.6337 7.54994 0.0 0.0 0.0 -9.03393 6.93193 -6.87659 -7.35472 0.23221 1.10407 36.2372 -5.90974 -4.60617 -12.4508 0.0 0.0 -0.0 0.0 -0.0 23.3818 -2.95017 -2.35177 -18.1802 -0.312859 -2.76068 -5.98876 -15.061 -0.892961 -1.23019 0.0 0.0 0.0 0.0 0.0 
555.431266165 716.19 -1192.40253123 170.779599478 -52.0493995516 179.232659914 -2.22675 -0.498942 -2.26132 -2.22397 -0.354076 -2.28846 -2.20637 0.223736 -2.30485 -2.21376 -0.14298 -2.31126 -3.25442 -5.36884 -0.560533 -3.22146 -9.33823 -1.37742 -0.0 0.0 -0.0 12.1617 -20.3366 24.2813 -38.4671 -54.3171 18.007 1.14678 -29.5992 0.302994 18.7698 0.275158 -2.37119 -0.435995 -15.358 -9.48938 -0.0 0.0 -0.0 9.87733 11.0002 -19.5484 -49.905 49.9555 -55.5739 0.351459 9.87653 -0.0303672 -20.1443 1.12703 -2.30284 -0.256172 11.3331 6.55747 0.0 0.0 0.0 -7.52793 4.75368 -6.6418 -13.7313 0.317639 2.07828 39.6024 -3.3032 -4.87407 -11.9107 0.0 0.0 -0.0 0.0 -0.0 23.3433 -3.47557 -2.97576 -14.5874 -0.320836 -2.20958 -3.42345 -14.7187 -0.507729 -2.444 0.0 0.0 0.0 0.0 0.0 
561.358420298 714.809 -1188.31727119 169.481952801 -53.4530611451 178.459437373 -2.41169 -0.526449 -2.27538 -2.40889 -0.380633 -2.30425 -2.3899 0.209353 -2.32606 -2.39741 -0.16053 -2.32994 -3.47793 -5.39286 -1.32204 -3.44927 -8.80862 -2.18417 -0.0 0.0 -0.0 11.9349 -20.3814 23.7571 -36.9401 -54.5745 18.6998 1.21064 -30.9507 0.335192 17.0678 0.282425 -2.15392 -0.531507 -16.296 -10.5338 -0.0 0.0 -0.0 9.97168 10.5493 -19.7634 -50.2534 49.4947 -56.1278 0.349821 9.83141 -0.0300869 -19.3338 1.06641 -2.21859 -0.387335 10.1149 6.92792 0.0 0.0 0.0 -10.9537 5.00088 -7.31776 -9.60351 0.274713 1.44651 38.8513 -6.70961 -4.85913 -13.056 0.0 0.0 -0.0 0.0 -0.0 23.9138 -3.3054 -3.75249 -11.6204 -0.301374 -1.75482 -9.02202 -17.8943 -1.3608 -3.54345 0.0 0.0 0.0 0.0 0.0 
607.559371035 705.348 -1149.48276527 172.829437943 -52.1455615635 179.900594421 -1.9173 -0.407783 -1.9194 -1.9153 -0.284844 -1.94145 -1.90335 0.194543 -1.95256 -1.90865 -0.116208 -1.95878 -2.12693 -3.52751 -2.01831 -2.10918 -4.77843 -2.58867 -0.0 0.0 -0.0 11.8778 -12.9031 23.9755 -9.77009 -43.7412 32.4416 2.07219 -45.7437 0.874206 3.392 0.107101 -0.419955 -2.19741 -19.9937 -23.6298 -0.0 0.0 -0.0 9.1244 6.48951 -17.9679 -53.6486 48.4743 -53.8533 0.487652 13.5809 -0.0580669 -20.7772 1.17521 -2.36805 -1.61943 -1.12299 10.3656 0.0 0.0 0.0 -12.1088 7.87899 -6.47608 -12.8195 0.312075 1.93849 39.3112 -8.78896 -4.93991 -13.0069 0.0 0.0 -0.0 0.0 -0.0 24.445 -2.04503 -3.94872 -1.31357 -0.0518537 -0.194912 -14.665 -13.0632 -2.20391 -6.34253 0.0 0.0 0.0 0.0 0.0 
621.886056754 699.311 -1145.20587038 173.93213431 -53.0923323686 179.562784766 -1.76752 -0.536236 -1.74978 -1.76592 -0.423824 -1.78035 -1.75074 0.0156779 -1.83002 -1.75531 -0.273488 -1.80954 -1.19268 -2.80822 -0.69701 -1.1812 -4.48462 -1.07946 -0.0 0.0 -0.0 11.1086 -11.6846 22.2625 -3.11813 -41.1197 39.6002 2.15674 -46.8876 0.935351 1.96751 0.0651561 -0.242837 -2.53422 -16.8459 -24.8047 -0.0 0.0 -0.0 8.61365 5.80847 -16.8891 -53.9562 48.8693 -53.3616 0.532093 14.7665 -0.0689491 -21.2312 1.2102 -2.41448 -2.11692 -6.19183 11.3197 0.0 0.0 0.0 -10.7975 6.95065 -5.38923 -16.6898 0.320362 2.53214 39.521 -7.54829 -4.93343 -11.9576 0.0 0.0 -0.0 0.0 -0.0 25.4118 -2.85733 -2.3238 -1.14113 -0.0453019 -0.169259 -17.04 -11.7639 -2.56165 -6.41306 0.0 0.0 0.0 0.0 0.0 
633.136279458 697.85 -1133.02481445 175.147990095 -52.8722723093 -179.925848509 -1.75401 -0.48301 -1.76692 -1.75235 -0.369616 -1.79406 -1.7388 0.0712399 -1.83034 -1.74341 -0.218674 -1.81863 0.871662 -2.51211 0.0149494 0.887525 -4.46081 -0.223439 -0.0 0.0 -0.0 10.8604 -10.4242 21.7244 -0.641796 -38.9093 42.9173 2.30625 -48.797 1.0462 -0.465126 -0.0166205 0.0570752 -2.66805 -16.3858 -25.5972 -0.0 0.0 -0.0 8.70976 2.46027 -17.0705 -56.1269 49.6799 -49.8923 0.471346 13.1428 -0.0542986 -22.4826 1.30858 -2.54106 -2.54932 -9.50175 12.5409 0.0 0.0 0.0 -10.7102 7.77282 -5.38335 -17.2408 0.318281 2.61665 39.4595 -8.5156 -4.94723 -11.041 0.0 0.0 -0.0 0.0 -0.0 26.171 -2.22207 -2.09245 -2.89991 -0.10849 -0.431772 -17.1594 -10.4686 -2.57736 -6.83035 0.0 0.0 0.0 0.0 0.0 
